<mxfile host="app.diagrams.net" modified="2022-06-13T08:33:59.148Z" agent="5.0 (Windows NT 10.0; Win64; x64) AppleWebKit/537.36 (KHTML, like Gecko) Chrome/102.0.5005.63 Safari/537.36 Edg/102.0.1245.39" etag="a1aUpRFcFqYAMTJ9LOmQ" version="19.0.2" type="github">
  <diagram id="gZeK0SjfhhkAVK6L_1Bv" name="第 1 页">
    <mxGraphModel dx="770" dy="527" grid="1" gridSize="10" guides="1" tooltips="1" connect="1" arrows="1" fold="1" page="1" pageScale="1" pageWidth="827" pageHeight="1169" math="0" shadow="0">
      <root>
        <mxCell id="0" />
        <mxCell id="1" parent="0" />
        <mxCell id="fg-wzC9iDO3aa0DlbC7y-1" value="App Log" style="shape=umlLifeline;perimeter=lifelinePerimeter;whiteSpace=wrap;html=1;container=1;collapsible=0;recursiveResize=0;outlineConnect=0;" vertex="1" parent="1">
          <mxGeometry x="120" y="40" width="100" height="550" as="geometry" />
        </mxCell>
        <mxCell id="fg-wzC9iDO3aa0DlbC7y-8" value="" style="html=1;points=[];perimeter=orthogonalPerimeter;" vertex="1" parent="fg-wzC9iDO3aa0DlbC7y-1">
          <mxGeometry x="45" y="130" width="10" height="60" as="geometry" />
        </mxCell>
        <mxCell id="fg-wzC9iDO3aa0DlbC7y-10" value="app2probe" style="html=1;verticalAlign=bottom;endArrow=block;rounded=0;entryX=0.39;entryY=-0.006;entryDx=0;entryDy=0;entryPerimeter=0;" edge="1" parent="fg-wzC9iDO3aa0DlbC7y-1" target="fg-wzC9iDO3aa0DlbC7y-9">
          <mxGeometry width="80" relative="1" as="geometry">
            <mxPoint x="55" y="159.31" as="sourcePoint" />
            <mxPoint x="135" y="159.31" as="targetPoint" />
          </mxGeometry>
        </mxCell>
        <mxCell id="fg-wzC9iDO3aa0DlbC7y-18" value="" style="html=1;points=[];perimeter=orthogonalPerimeter;" vertex="1" parent="fg-wzC9iDO3aa0DlbC7y-1">
          <mxGeometry x="45" y="420" width="10" height="40" as="geometry" />
        </mxCell>
        <mxCell id="fg-wzC9iDO3aa0DlbC7y-2" value="Actor" style="shape=umlActor;verticalLabelPosition=bottom;verticalAlign=top;html=1;" vertex="1" parent="1">
          <mxGeometry x="50" y="130" width="30" height="60" as="geometry" />
        </mxCell>
        <mxCell id="fg-wzC9iDO3aa0DlbC7y-3" value="Probe&amp;nbsp;" style="shape=umlLifeline;perimeter=lifelinePerimeter;whiteSpace=wrap;html=1;container=1;collapsible=0;recursiveResize=0;outlineConnect=0;" vertex="1" parent="1">
          <mxGeometry x="280" y="40" width="105" height="550" as="geometry" />
        </mxCell>
        <mxCell id="fg-wzC9iDO3aa0DlbC7y-9" value="" style="html=1;points=[];perimeter=orthogonalPerimeter;" vertex="1" parent="fg-wzC9iDO3aa0DlbC7y-3">
          <mxGeometry x="45" y="160" width="10" height="70" as="geometry" />
        </mxCell>
        <mxCell id="fg-wzC9iDO3aa0DlbC7y-17" value="" style="html=1;points=[];perimeter=orthogonalPerimeter;" vertex="1" parent="fg-wzC9iDO3aa0DlbC7y-3">
          <mxGeometry x="45" y="400" width="10" height="40" as="geometry" />
        </mxCell>
        <mxCell id="fg-wzC9iDO3aa0DlbC7y-24" value="eventId" style="text;html=1;align=center;verticalAlign=middle;resizable=0;points=[];autosize=1;strokeColor=none;fillColor=none;" vertex="1" parent="fg-wzC9iDO3aa0DlbC7y-3">
          <mxGeometry x="58" y="220" width="50" height="20" as="geometry" />
        </mxCell>
        <mxCell id="fg-wzC9iDO3aa0DlbC7y-4" value="Meta" style="shape=umlLifeline;perimeter=lifelinePerimeter;whiteSpace=wrap;html=1;container=1;collapsible=0;recursiveResize=0;outlineConnect=0;" vertex="1" parent="1">
          <mxGeometry x="450" y="40" width="100" height="540" as="geometry" />
        </mxCell>
        <mxCell id="fg-wzC9iDO3aa0DlbC7y-12" value="" style="html=1;points=[];perimeter=orthogonalPerimeter;" vertex="1" parent="fg-wzC9iDO3aa0DlbC7y-4">
          <mxGeometry x="45" y="209" width="10" height="51" as="geometry" />
        </mxCell>
        <mxCell id="fg-wzC9iDO3aa0DlbC7y-16" value="" style="html=1;points=[];perimeter=orthogonalPerimeter;" vertex="1" parent="fg-wzC9iDO3aa0DlbC7y-4">
          <mxGeometry x="45" y="380" width="10" height="40" as="geometry" />
        </mxCell>
        <mxCell id="fg-wzC9iDO3aa0DlbC7y-23" value="metaId" style="text;html=1;align=center;verticalAlign=middle;resizable=0;points=[];autosize=1;strokeColor=none;fillColor=none;" vertex="1" parent="fg-wzC9iDO3aa0DlbC7y-4">
          <mxGeometry x="-10" y="220" width="50" height="20" as="geometry" />
        </mxCell>
        <mxCell id="fg-wzC9iDO3aa0DlbC7y-5" value="Event" style="shape=umlLifeline;perimeter=lifelinePerimeter;whiteSpace=wrap;html=1;container=1;collapsible=0;recursiveResize=0;outlineConnect=0;" vertex="1" parent="1">
          <mxGeometry x="611" y="40" width="100" height="550" as="geometry" />
        </mxCell>
        <mxCell id="fg-wzC9iDO3aa0DlbC7y-13" value="" style="html=1;points=[];perimeter=orthogonalPerimeter;" vertex="1" parent="fg-wzC9iDO3aa0DlbC7y-5">
          <mxGeometry x="45" y="239" width="10" height="41" as="geometry" />
        </mxCell>
        <mxCell id="fg-wzC9iDO3aa0DlbC7y-15" value="" style="html=1;points=[];perimeter=orthogonalPerimeter;" vertex="1" parent="fg-wzC9iDO3aa0DlbC7y-5">
          <mxGeometry x="45" y="360" width="10" height="40" as="geometry" />
        </mxCell>
        <mxCell id="fg-wzC9iDO3aa0DlbC7y-19" value="event2meta" style="html=1;verticalAlign=bottom;endArrow=open;dashed=1;endSize=8;rounded=0;entryX=0.976;entryY=-0.013;entryDx=0;entryDy=0;entryPerimeter=0;" edge="1" parent="fg-wzC9iDO3aa0DlbC7y-5" target="fg-wzC9iDO3aa0DlbC7y-16">
          <mxGeometry relative="1" as="geometry">
            <mxPoint x="45" y="379.66" as="sourcePoint" />
            <mxPoint x="-35" y="379.66" as="targetPoint" />
          </mxGeometry>
        </mxCell>
        <mxCell id="fg-wzC9iDO3aa0DlbC7y-11" value="probe2meta" style="html=1;verticalAlign=bottom;endArrow=block;rounded=0;entryX=0.045;entryY=0.016;entryDx=0;entryDy=0;entryPerimeter=0;" edge="1" parent="1" target="fg-wzC9iDO3aa0DlbC7y-12">
          <mxGeometry width="80" relative="1" as="geometry">
            <mxPoint x="335" y="250" as="sourcePoint" />
            <mxPoint x="415" y="250" as="targetPoint" />
          </mxGeometry>
        </mxCell>
        <mxCell id="fg-wzC9iDO3aa0DlbC7y-14" value="meta2event" style="html=1;verticalAlign=bottom;endArrow=block;rounded=0;entryX=-0.024;entryY=0.023;entryDx=0;entryDy=0;entryPerimeter=0;" edge="1" parent="1" target="fg-wzC9iDO3aa0DlbC7y-13">
          <mxGeometry width="80" relative="1" as="geometry">
            <mxPoint x="505" y="280" as="sourcePoint" />
            <mxPoint x="585" y="280" as="targetPoint" />
          </mxGeometry>
        </mxCell>
        <mxCell id="fg-wzC9iDO3aa0DlbC7y-20" value="meta2probe" style="html=1;verticalAlign=bottom;endArrow=open;dashed=1;endSize=8;rounded=0;entryX=0.872;entryY=-0.013;entryDx=0;entryDy=0;entryPerimeter=0;" edge="1" parent="1" target="fg-wzC9iDO3aa0DlbC7y-17">
          <mxGeometry relative="1" as="geometry">
            <mxPoint x="494" y="440" as="sourcePoint" />
            <mxPoint x="414" y="440" as="targetPoint" />
          </mxGeometry>
        </mxCell>
        <mxCell id="fg-wzC9iDO3aa0DlbC7y-21" value="probe2app" style="html=1;verticalAlign=bottom;endArrow=open;dashed=1;endSize=8;rounded=0;entryX=0.734;entryY=0.004;entryDx=0;entryDy=0;entryPerimeter=0;" edge="1" parent="1" target="fg-wzC9iDO3aa0DlbC7y-18">
          <mxGeometry relative="1" as="geometry">
            <mxPoint x="324" y="460" as="sourcePoint" />
            <mxPoint x="244" y="460" as="targetPoint" />
          </mxGeometry>
        </mxCell>
        <mxCell id="fg-wzC9iDO3aa0DlbC7y-22" value="Action" style="html=1;verticalAlign=bottom;endArrow=block;rounded=0;" edge="1" parent="1">
          <mxGeometry width="80" relative="1" as="geometry">
            <mxPoint x="90" y="170" as="sourcePoint" />
            <mxPoint x="170" y="170" as="targetPoint" />
          </mxGeometry>
        </mxCell>
        <mxCell id="fg-wzC9iDO3aa0DlbC7y-25" value="metaId" style="text;html=1;align=center;verticalAlign=middle;resizable=0;points=[];autosize=1;strokeColor=none;fillColor=none;" vertex="1" parent="1">
          <mxGeometry x="565" y="290" width="50" height="20" as="geometry" />
        </mxCell>
      </root>
    </mxGraphModel>
  </diagram>
</mxfile>
